<?xml version="1.0" standalone="no"?>
<!DOCTYPE svg PUBLIC "-//W3C//DTD SVG 20010904//EN"
 "http://www.w3.org/TR/2001/REC-SVG-20010904/DTD/svg10.dtd">
<svg version="1.0" xmlns="http://www.w3.org/2000/svg"
 width="512.000000pt" height="512.000000pt" viewBox="0 0 512.000000 512.000000"
 preserveAspectRatio="xMidYMid meet">

<g transform="translate(0.000000,512.000000) scale(0.100000,-0.100000)"
fill="#000000" stroke="none">
<path d="M1100 3183 c-55 -19 -128 -72 -154 -111 -18 -27 -26 -30 -87 -34
-123 -9 -243 -98 -279 -208 -10 -30 -20 -40 -50 -50 -153 -50 -245 -239 -192
-393 l19 -58 -29 -31 c-16 -18 -41 -55 -56 -82 -22 -43 -26 -64 -26 -136 -1
-70 4 -94 24 -135 52 -106 153 -174 271 -183 61 -4 67 -7 88 -38 54 -78 180
-131 286 -120 51 5 65 3 76 -11 25 -30 102 -73 133 -73 24 0 52 23 168 137 76
76 141 148 145 161 12 50 -33 102 -88 102 -12 0 -49 -28 -86 -62 l-65 -63 4
125 c3 113 6 130 31 182 81 164 321 416 692 726 l150 125 3 -94 3 -94 -109
-105 c-209 -200 -337 -357 -406 -500 l-41 -85 -3 -240 c-3 -230 -2 -242 17
-267 27 -34 103 -53 179 -44 52 5 61 3 101 -24 64 -44 141 -64 215 -56 56 5
64 3 105 -24 65 -44 141 -64 216 -56 53 5 66 3 88 -14 80 -63 214 -84 308 -47
46 17 49 17 108 -3 76 -25 126 -25 201 0 l60 20 60 -20 c75 -25 125 -25 200 0
l60 20 63 -21 c50 -17 74 -20 122 -14 77 10 117 10 186 0 65 -9 145 10 200 48
23 15 57 26 95 30 65 7 115 25 154 55 15 12 49 21 88 25 101 11 205 77 247
157 8 16 29 37 45 45 80 42 149 149 158 249 3 39 13 72 29 95 36 53 56 135 49
202 -6 64 -18 96 -58 155 -25 38 -27 47 -21 107 14 152 -79 287 -229 333 -41
13 -61 26 -78 50 -52 77 -178 131 -283 121 -53 -5 -64 -2 -106 24 -68 44 -142
63 -216 55 -53 -5 -66 -3 -88 14 -41 33 -109 59 -170 66 -44 5 -71 2 -126 -16
-67 -21 -69 -21 -102 -4 -25 14 -58 18 -129 19 -86 1 -99 4 -134 28 -46 32
-124 57 -178 57 -21 0 -65 -9 -98 -20 l-60 -20 -62 21 c-111 37 -113 36 -380
-183 -59 -48 -110 -88 -113 -88 -3 0 -5 51 -5 114 0 130 -9 150 -52 116 l-25
-19 -23 24 c-28 30 -75 40 -113 26 -22 -9 -40 -7 -87 9 -75 25 -125 25 -200 0
l-60 -20 -60 20 c-33 11 -78 20 -100 20 -22 0 -67 -9 -100 -20 l-60 -20 -60
20 c-70 24 -138 25 -200 3z m195 -176 c50 -34 70 -34 140 3 31 17 70 30 85 30
15 0 54 -13 85 -30 69 -36 90 -37 136 -6 20 14 52 28 72 31 40 8 90 -1 85 -14
-2 -4 -64 -59 -138 -121 -176 -148 -490 -462 -570 -570 -35 -47 -81 -123 -104
-170 l-41 -85 -3 -146 -4 -146 -23 5 c-13 2 -47 -4 -75 -13 -89 -30 -162 1
-205 84 -36 72 -61 86 -124 70 -123 -31 -229 65 -207 187 7 37 74 114 99 114
24 0 51 40 51 74 0 22 -11 46 -34 75 -31 38 -35 50 -35 101 0 90 49 144 143
159 67 10 83 26 93 90 10 63 39 105 89 131 45 23 76 25 131 9 49 -15 80 3 113
69 40 78 81 104 157 99 28 -2 60 -14 84 -30z m1445 -3 c45 -31 66 -30 135 6
31 17 68 30 81 30 42 0 101 -30 137 -71 40 -44 64 -48 127 -23 52 21 106 14
156 -20 49 -33 69 -33 139 4 31 17 68 30 81 30 42 0 101 -30 138 -72 40 -44
51 -45 141 -17 64 19 108 6 167 -52 57 -55 62 -56 160 -29 43 13 52 12 95 -6
32 -13 55 -31 68 -53 38 -64 71 -91 110 -91 111 0 187 -101 156 -205 -28 -91
-27 -98 27 -151 78 -77 83 -154 15 -233 -34 -40 -36 -47 -37 -114 -1 -88 -24
-125 -97 -162 -38 -20 -54 -36 -74 -74 -37 -73 -74 -96 -162 -97 -66 -1 -75
-4 -109 -33 -48 -43 -74 -52 -144 -49 -51 3 -62 0 -87 -23 -35 -33 -85 -59
-114 -59 -12 0 -46 8 -76 17 -51 16 -56 16 -108 -1 -65 -23 -109 -17 -162 18
-48 33 -68 33 -138 -4 -71 -38 -99 -38 -170 0 -31 17 -65 30 -75 30 -10 0 -44
-14 -75 -30 -71 -38 -99 -38 -170 0 -31 17 -65 30 -75 30 -10 0 -44 -13 -75
-30 -31 -16 -68 -30 -81 -30 -42 0 -101 30 -137 71 -40 43 -65 48 -124 24 -72
-30 -124 -16 -190 50 -48 49 -71 55 -130 30 -72 -30 -124 -16 -190 50 -48 49
-71 55 -130 30 -65 -27 -63 -33 -63 163 0 174 1 178 28 237 86 181 409 508
842 853 124 100 125 100 190 56z"/>
<path d="M1120 2720 l0 -80 80 0 80 0 0 80 0 80 -80 0 -80 0 0 -80z"/>
<path d="M720 2480 l0 -80 80 0 80 0 0 80 0 80 -80 0 -80 0 0 -80z"/>
<path d="M2640 2720 l0 -80 80 0 80 0 0 80 0 80 -80 0 -80 0 0 -80z"/>
<path d="M3280 2560 l0 -80 80 0 80 0 0 80 0 80 -80 0 -80 0 0 -80z"/>
<path d="M2400 2320 l0 -80 80 0 80 0 0 80 0 80 -80 0 -80 0 0 -80z"/>
<path d="M4000 2320 l0 -80 80 0 80 0 0 80 0 80 -80 0 -80 0 0 -80z"/>
<path d="M2080 2000 l0 -80 80 0 80 0 0 80 0 80 -80 0 -80 0 0 -80z"/>
<path d="M3440 2000 l0 -80 80 0 80 0 0 80 0 80 -80 0 -80 0 0 -80z"/>
<path d="M2800 1920 l0 -80 80 0 80 0 0 80 0 80 -80 0 -80 0 0 -80z"/>
<path d="M4000 1920 l0 -80 80 0 80 0 0 80 0 80 -80 0 -80 0 0 -80z"/>
<path d="M25 1575 c-30 -29 -31 -54 -6 -126 160 -465 693 -845 1424 -1015 l77
-18 0 -142 c0 -121 3 -145 18 -164 20 -25 51 -32 271 -60 480 -61 949 -64
1421 -10 394 45 370 30 370 233 l0 143 78 18 c585 137 1036 399 1282 747 83
118 160 284 160 346 0 31 -42 73 -74 73 -13 0 -58 -18 -98 -40 -221 -119 -569
-232 -954 -310 -758 -154 -1797 -171 -2624 -44 -460 71 -930 210 -1198 354
-85 46 -114 49 -147 15z m365 -288 c746 -290 1964 -399 3105 -276 461 49 932
156 1254 283 63 25 116 44 118 42 9 -9 -128 -174 -206 -249 -281 -267 -725
-457 -1282 -547 -433 -70 -1021 -78 -1490 -20 -762 95 -1328 370 -1619 789
-15 22 -19 32 -9 29 7 -3 66 -26 129 -51z m1807 -956 c376 -24 857 -5 1192 48
l51 8 0 -78 c0 -65 -3 -79 -17 -83 -33 -10 -376 -45 -543 -56 -313 -19 -608
-10 -980 31 -102 11 -193 22 -202 25 -15 5 -18 18 -18 82 l0 77 173 -21 c95
-12 250 -27 344 -33z"/>
<path d="M1360 1360 l0 -80 80 0 80 0 0 80 0 80 -80 0 -80 0 0 -80z"/>
<path d="M2000 1280 l0 -80 80 0 80 0 0 80 0 80 -80 0 -80 0 0 -80z"/>
</g>
</svg>
