<?xml version="1.0" standalone="no"?>
<!DOCTYPE svg PUBLIC "-//W3C//DTD SVG 20010904//EN"
 "http://www.w3.org/TR/2001/REC-SVG-20010904/DTD/svg10.dtd">
<svg version="1.0" xmlns="http://www.w3.org/2000/svg"
 width="512.000000pt" height="512.000000pt" viewBox="0 0 512.000000 512.000000"
 preserveAspectRatio="xMidYMid meet">

<g transform="translate(0.000000,512.000000) scale(0.100000,-0.100000)"
fill="#000000" stroke="none">
<path d="M1732 4467 c-18 -5 -52 -27 -76 -49 l-44 -38 -444 0 c-408 0 -446 -2
-483 -19 -78 -36 -105 -91 -105 -216 0 -49 6 -99 14 -118 18 -45 78 -95 123
-102 21 -4 42 -8 47 -9 5 -1 51 -211 101 -467 92 -462 105 -513 145 -570 l21
-29 -443 0 c-410 0 -446 -2 -484 -19 -84 -38 -107 -97 -102 -263 3 -112 4
-117 34 -155 39 -49 87 -73 145 -73 l46 0 112 -572 c62 -315 120 -600 128
-633 42 -170 163 -305 329 -367 56 -21 76 -22 438 -26 l379 -3 43 -38 c24 -21
60 -43 82 -49 29 -9 252 -12 824 -12 870 0 839 -2 908 65 l35 34 375 3 c358 4
378 5 434 26 166 62 287 197 329 367 8 33 66 317 127 631 l113 572 63 4 c52 3
70 9 100 34 63 51 74 83 74 214 0 90 -4 124 -19 155 -40 87 -86 105 -274 105
-129 0 -147 -2 -169 -20 -33 -25 -39 -49 -22 -88 16 -39 27 -42 194 -45 l135
-2 0 -100 0 -100 -712 -3 -713 -2 0 105 0 105 435 0 c422 0 436 1 455 20 30
30 27 83 -6 109 -24 19 -40 21 -175 21 l-149 0 23 38 c41 65 48 94 141 564
l91 461 38 13 c102 35 127 80 127 224 0 118 -15 158 -77 200 l-37 25 -450 3
-451 3 -35 34 c-69 67 -37 65 -914 64 -523 -1 -802 -5 -824 -12z m1633 -162
l25 -24 0 -1396 0 -1396 25 -24 c30 -31 71 -32 102 -3 23 21 23 24 23 259 l0
237 193 4 c166 4 198 7 237 25 97 44 136 94 190 248 l35 100 268 3 c253 2 268
1 263 -15 -2 -10 -55 -274 -116 -588 -62 -314 -121 -593 -132 -622 -27 -74
-95 -146 -176 -185 l-67 -33 -347 -3 -348 -3 0 170 0 170 -26 20 c-33 26 -65
27 -95 2 -23 -19 -24 -24 -29 -221 -5 -197 -6 -202 -29 -221 -22 -18 -51 -19
-803 -19 l-779 0 -24 25 -25 24 0 1089 c0 1087 0 1089 -21 1116 -26 33 -79 36
-109 6 -17 -17 -20 -33 -20 -110 l0 -90 -142 0 c-129 0 -148 3 -193 24 -54 25
-113 84 -133 131 -11 27 -182 876 -182 904 0 8 41 11 139 11 l139 0 28 -82
c15 -46 35 -99 45 -120 39 -77 136 -128 246 -128 l53 0 0 -150 c0 -137 2 -152
20 -170 30 -30 83 -27 109 6 21 26 21 36 21 516 l0 489 25 24 24 25 781 0 781
0 24 -25z m-1785 -155 l0 -80 -422 2 -423 3 -3 64 c-2 35 -1 70 2 77 4 12 81
14 426 14 l420 0 0 -80z m2785 0 l0 -75 -412 -3 -413 -2 0 80 0 80 413 -2 412
-3 0 -75z m-2785 -320 l0 -90 -44 0 c-63 0 -104 18 -122 52 -12 24 -43 113
-44 126 0 1 47 2 105 2 l105 0 0 -90z m2198 78 c-3 -7 -13 -36 -22 -64 -26
-79 -52 -98 -142 -102 l-74 -4 0 91 0 91 121 0 c93 0 120 -3 117 -12z m422 6
c0 -26 -175 -886 -185 -910 -20 -50 -76 -105 -130 -130 -45 -22 -64 -24 -197
-24 l-148 0 0 369 0 369 89 4 c69 3 99 9 137 29 80 41 108 88 169 287 3 9 39
12 135 12 71 0 130 -3 130 -6z m-2620 -1319 l0 -105 -712 2 -713 3 -3 89 c-2
49 -1 95 2 103 4 11 134 13 716 13 l710 0 0 -105z m-619 -322 c55 -170 106
-240 208 -286 40 -19 69 -22 229 -25 l182 -4 0 -535 0 -534 -352 3 -353 3 -58
27 c-78 37 -158 119 -184 188 -12 30 -71 311 -133 625 -61 314 -114 578 -116
588 -5 16 13 17 275 17 l279 0 23 -67z m617 -45 l-3 -113 -143 -3 c-83 -1
-160 2 -184 9 -68 18 -102 65 -142 197 l-7 22 241 0 241 0 -3 -112z m2435 37
c-29 -87 -65 -129 -123 -145 -22 -6 -107 -9 -192 -8 l-153 3 -3 113 -3 112
250 0 250 0 -26 -75z"/>
<path d="M2051 2944 c-20 -25 -21 -40 -21 -224 0 -235 10 -280 73 -344 23 -23
57 -48 75 -55 l32 -13 0 -410 0 -409 25 -24 c31 -32 69 -32 100 0 l25 24 0
408 1 408 52 30 c64 37 113 112 122 189 4 28 5 130 3 227 -3 202 -9 219 -78
219 -66 0 -68 -8 -72 -248 l-3 -214 -33 -29 c-53 -47 -127 -35 -157 26 -12 26
-15 73 -15 229 0 183 -1 197 -20 216 -30 30 -83 27 -109 -6z"/>
<path d="M2699 2941 l-29 -29 0 -714 0 -715 23 -21 c29 -27 67 -28 98 -3 24
19 24 23 27 225 l3 206 52 1 c98 1 184 53 232 140 l30 54 3 328 c3 370 1 390
-65 467 -58 68 -117 90 -241 90 -101 0 -104 -1 -133 -29z m238 -141 c51 -31
55 -60 51 -392 l-3 -298 -32 -31 c-24 -25 -42 -33 -82 -37 l-51 -5 0 392 0
391 43 0 c24 0 56 -8 74 -20z"/>
</g>
</svg>
