<?xml version="1.0" standalone="no"?>
<!DOCTYPE svg PUBLIC "-//W3C//DTD SVG 20010904//EN"
 "http://www.w3.org/TR/2001/REC-SVG-20010904/DTD/svg10.dtd">
<svg version="1.0" xmlns="http://www.w3.org/2000/svg"
 width="512.000000pt" height="512.000000pt" viewBox="0 0 512.000000 512.000000"
 preserveAspectRatio="xMidYMid meet">

<g transform="translate(0.000000,512.000000) scale(0.100000,-0.100000)"
fill="#000000" stroke="none">
<path d="M2230 5024 c-19 -2 -80 -9 -135 -15 -800 -84 -1376 -411 -1689 -960
-148 -260 -236 -590 -236 -890 0 -176 28 -245 124 -307 l41 -27 2204 -3 c1437
-1 2216 1 2240 8 48 13 116 71 143 124 31 57 36 236 13 418 -82 645 -458 1152
-1052 1417 -241 108 -475 171 -818 218 -104 14 -744 27 -835 17z m818 -188
c615 -82 1029 -273 1332 -613 98 -110 159 -203 230 -348 108 -222 163 -459
164 -708 1 -134 0 -139 -23 -158 -23 -19 -70 -19 -2192 -19 -2146 0 -2169 0
-2189 20 -29 29 -33 60 -27 199 15 319 125 652 291 884 303 422 815 680 1481
746 61 6 124 13 140 15 83 11 677 -2 793 -18z"/>
<path d="M2422 4670 c-47 -44 -36 -111 22 -135 86 -36 156 66 91 130 -30 31
-82 33 -113 5z"/>
<path d="M1395 4495 c-53 -52 -16 -139 60 -139 59 0 96 54 75 110 -23 58 -92
73 -135 29z"/>
<path d="M3108 4500 c-74 -57 -4 -175 82 -140 37 15 50 37 50 84 0 65 -79 99
-132 56z"/>
<path d="M1919 4337 c-43 -33 -49 -84 -15 -123 62 -73 179 5 134 89 -17 32
-39 46 -73 46 -16 0 -37 -5 -46 -12z"/>
<path d="M3785 4325 c-27 -27 -33 -79 -12 -106 50 -65 151 -35 151 46 0 76
-87 113 -139 60z"/>
<path d="M2594 4156 c-52 -44 -30 -126 36 -141 80 -18 134 82 75 140 -31 32
-75 32 -111 1z"/>
<path d="M3445 4155 c-41 -40 -33 -105 17 -131 38 -20 84 -10 105 22 55 85
-52 180 -122 109z"/>
<path d="M402 2639 c-23 -7 -38 -20 -49 -44 -16 -32 -16 -37 0 -69 12 -26 26
-37 54 -45 23 -7 163 -11 353 -11 l314 0 246 -244 c135 -135 258 -250 273
-255 21 -8 36 -7 60 3 18 8 140 122 272 255 l240 241 1255 0 c848 0 1267 4
1293 11 28 8 42 19 54 45 16 31 16 37 0 68 -12 26 -26 37 -54 45 -26 7 -448
11 -1306 11 -1064 0 -1273 -2 -1300 -14 -18 -8 -133 -116 -257 -240 l-224
-226 -236 234 c-188 186 -242 234 -269 240 -52 10 -682 5 -719 -5z"/>
<path d="M141 2274 c-60 -30 -113 -95 -131 -160 -8 -26 -11 -93 -8 -175 4
-153 16 -188 87 -252 80 -72 -115 -67 2471 -67 2586 0 2391 -5 2471 67 71 64
83 99 87 252 3 82 0 149 -8 175 -18 65 -71 130 -131 160 l-53 26 -1371 0
-1372 0 -20 -22 c-30 -34 -34 -55 -19 -92 9 -23 24 -37 46 -45 24 -8 398 -11
1370 -11 1328 0 1336 0 1358 -20 30 -28 34 -53 30 -169 -3 -89 -6 -103 -26
-123 l-23 -23 -2339 0 -2339 0 -23 23 c-20 20 -23 34 -26 123 -4 116 0 141 30
169 21 19 34 20 420 20 326 0 405 3 433 15 58 23 70 90 25 135 -19 19 -35 20
-453 20 l-433 0 -53 -26z"/>
<path d="M583 1435 c-29 -8 -76 -26 -105 -41 -64 -32 -183 -118 -203 -147 -23
-33 -19 -84 10 -112 39 -39 71 -33 156 32 88 67 166 105 229 111 44 4 50 1
101 -42 123 -105 184 -132 280 -123 67 6 126 35 188 91 65 60 91 76 124 76 38
0 62 -14 126 -72 69 -63 121 -89 192 -95 89 -8 149 16 248 99 81 67 86 70 127
65 36 -4 55 -15 110 -65 148 -136 285 -137 442 -3 60 51 83 65 116 68 40 5 46
2 125 -65 158 -134 295 -137 437 -8 105 94 136 99 216 31 122 -104 183 -131
279 -122 67 6 126 35 188 91 65 60 91 76 124 76 38 0 61 -14 131 -76 121 -109
253 -121 419 -38 63 32 182 118 202 147 24 34 19 84 -11 112 -41 38 -71 32
-155 -32 -88 -67 -166 -105 -229 -111 -44 -4 -50 -1 -101 42 -123 105 -184
132 -280 123 -67 -6 -126 -35 -188 -91 -65 -60 -91 -76 -124 -76 -38 0 -62 14
-126 72 -69 63 -121 89 -192 95 -89 8 -149 -16 -248 -99 -81 -67 -86 -70 -127
-65 -36 4 -55 15 -110 65 -148 136 -285 137 -442 3 -60 -51 -83 -65 -116 -68
-40 -5 -46 -2 -125 65 -158 134 -295 137 -437 8 -105 -94 -136 -99 -216 -31
-122 104 -183 131 -279 122 -67 -6 -126 -35 -188 -91 -65 -60 -91 -76 -124
-76 -38 0 -61 14 -131 76 -96 87 -192 111 -313 79z"/>
<path d="M342 921 c-69 -24 -126 -80 -152 -148 -23 -61 -28 -238 -10 -333 22
-117 87 -216 182 -280 114 -76 -66 -70 2198 -70 2264 0 2084 -6 2198 70 67 45
114 100 148 173 33 74 44 141 44 273 0 142 -20 203 -84 262 -85 78 106 72
-2310 72 -2072 -1 -2163 -1 -2214 -19z m4410 -179 c22 -21 23 -30 23 -160 0
-133 -1 -139 -29 -190 -31 -55 -74 -94 -131 -118 -52 -21 -4058 -21 -4110 0
-58 24 -100 63 -130 118 -27 49 -29 62 -33 178 -3 136 4 165 48 187 20 10 464
12 2182 10 l2157 -2 23 -23z"/>
</g>
</svg>
