<?xml version="1.0" standalone="no"?>
<!DOCTYPE svg PUBLIC "-//W3C//DTD SVG 20010904//EN"
 "http://www.w3.org/TR/2001/REC-SVG-20010904/DTD/svg10.dtd">
<svg version="1.0" xmlns="http://www.w3.org/2000/svg"
 width="512.000000pt" height="512.000000pt" viewBox="0 0 512.000000 512.000000"
 preserveAspectRatio="xMidYMid meet">

<g transform="translate(0.000000,512.000000) scale(0.100000,-0.100000)"
fill="#000000" stroke="none">
<path d="M2465 5109 c-615 -81 -1142 -569 -1364 -1262 -104 -328 -135 -704
-86 -1044 15 -97 37 -209 51 -254 4 -13 -10 -20 -68 -34 -103 -25 -297 -91
-401 -136 -290 -125 -493 -300 -569 -488 -23 -56 -23 -58 -23 -566 0 -498 1
-511 21 -567 104 -274 461 -501 1000 -636 860 -216 1957 -137 2600 186 197 99
374 251 441 378 56 104 63 153 63 405 l0 228 77 46 c410 249 716 689 844 1210
51 211 64 319 63 560 0 326 -44 572 -149 841 -231 589 -671 994 -1213 1116
-93 20 -123 21 -657 24 -308 1 -591 -2 -630 -7z m416 -179 c925 -189 1479
-1353 1153 -2426 -32 -109 -118 -319 -134 -329 -4 -2 -56 28 -116 68 -86 57
-188 110 -311 162 -1 0 18 50 42 110 129 321 152 717 61 1065 -112 428 -393
757 -728 850 -527 147 -1043 -290 -1170 -990 -16 -88 -21 -158 -21 -300 -1
-190 12 -301 52 -445 l18 -64 -76 -6 c-42 -4 -152 -17 -245 -30 -94 -14 -172
-22 -174 -20 -10 10 -43 171 -58 289 -13 100 -15 177 -11 335 5 206 17 299 58
466 159 640 603 1130 1137 1254 120 28 119 28 280 30 109 1 168 -4 243 -19z
m800 5 c649 -113 1162 -743 1259 -1545 14 -121 12 -417 -5 -540 -48 -360 -174
-679 -370 -939 -87 -115 -252 -276 -357 -348 l-76 -53 -4 158 c-5 173 -18 229
-78 321 l-30 48 54 114 c146 308 216 627 216 989 0 331 -56 614 -176 898 -156
366 -427 690 -728 870 l-70 42 141 0 c78 0 177 -6 224 -15z m-887 -661 c316
-82 572 -423 652 -869 24 -137 24 -393 0 -530 -31 -170 -113 -405 -143 -405
-14 0 -154 40 -161 46 -2 1 33 100 77 218 46 123 81 232 81 252 0 48 -26 101
-60 120 -24 15 -28 25 -38 103 -16 119 -37 193 -78 280 -86 182 -223 319 -409
408 -60 28 -76 41 -81 62 -24 108 -61 200 -113 276 -12 17 -21 33 -21 37 0 21
213 23 294 2z m-374 -199 c136 -271 13 -594 -269 -705 -52 -20 -126 -33 -255
-45 l-69 -7 7 54 c22 167 98 380 187 524 60 97 187 233 263 282 l50 32 23 -27
c13 -16 41 -64 63 -108z m284 -357 c35 -19 93 -64 137 -108 93 -93 161 -219
184 -343 21 -111 20 -127 -8 -127 -12 0 -39 -9 -60 -19 -36 -18 -38 -18 -74 0
-21 10 -52 19 -69 19 -28 0 -34 5 -44 34 -24 74 -109 184 -198 256 l-43 35 36
70 c20 39 43 103 53 142 9 40 19 73 21 73 2 0 31 -15 65 -32z m-180 -469 c28
-30 60 -71 70 -91 l20 -36 -31 -35 c-18 -20 -47 -81 -73 -151 -24 -64 -45
-114 -47 -112 -3 2 -11 30 -19 63 -20 77 -92 224 -144 293 -37 49 -39 56 -24
65 10 6 45 29 78 51 60 41 62 41 90 25 15 -9 51 -41 80 -72z m-384 -131 c94
-117 155 -264 167 -405 l6 -73 -209 2 -209 3 -22 78 c-28 100 -53 265 -53 356
0 84 -24 75 252 99 10 1 38 -24 68 -60z m658 -160 c-3 -7 -31 -90 -62 -184
l-57 -171 -47 4 c-26 3 -50 9 -55 12 -6 6 33 117 112 324 10 25 15 27 62 27
37 0 50 -4 47 -12z m327 -5 c-4 -10 -33 -89 -66 -175 -93 -250 -80 -228 -130
-217 -24 6 -45 11 -46 12 -2 2 77 217 136 370 10 25 15 27 62 27 45 0 50 -2
44 -17z m-649 -493 c627 -57 1137 -236 1366 -478 90 -96 113 -146 113 -247 0
-101 -23 -151 -113 -247 -222 -235 -697 -407 -1307 -474 -118 -13 -241 -18
-470 -18 -333 0 -487 12 -760 59 -554 95 -988 312 -1106 550 -29 60 -31 70
-27 142 6 98 27 140 115 234 248 263 811 446 1504 489 155 10 527 4 685 -10z
m-2089 -1263 c271 -165 682 -287 1158 -344 217 -26 826 -26 1040 0 400 49 730
135 993 258 132 61 208 108 305 186 l77 63 0 -258 0 -257 -30 -64 c-37 -78
-135 -179 -238 -246 -266 -172 -646 -287 -1147 -347 -150 -18 -797 -18 -960 0
-486 54 -902 181 -1158 354 -84 57 -197 172 -227 233 -24 49 -25 55 -28 318
l-3 267 78 -63 c43 -34 106 -80 140 -100z"/>
<path d="M4129 4459 l-45 -61 92 -92 c135 -134 221 -282 276 -476 l13 -45 78
13 c49 9 77 19 77 27 0 7 -11 52 -25 100 -45 155 -128 306 -238 433 -55 63
-162 162 -176 162 -4 0 -27 -28 -52 -61z"/>
<path d="M969 2132 c-158 -42 -273 -169 -302 -335 -50 -296 299 -519 958 -613
150 -21 570 -30 732 -15 644 58 1073 264 1109 531 14 107 -36 242 -122 327
-125 122 -300 152 -459 79 -78 -35 -132 -91 -241 -245 -53 -75 -100 -140 -104
-144 -4 -4 -35 69 -70 162 -34 94 -71 184 -82 201 -29 48 -88 70 -188 70 -61
0 -96 -6 -125 -19 -39 -17 -41 -17 -80 0 -56 26 -195 25 -251 0 -71 -32 -110
-118 -85 -185 7 -16 10 -31 7 -33 -2 -3 -70 35 -151 82 -154 92 -238 127 -345
144 -87 14 -123 13 -201 -7z m181 -155 c0 -2 -32 -46 -71 -98 l-70 -94 28 -23
c47 -38 103 -75 107 -71 1 2 40 54 85 114 45 61 85 110 89 110 14 0 162 -90
162 -99 0 -5 -32 -52 -71 -103 -39 -52 -69 -96 -67 -97 2 -1 31 -24 65 -49
l62 -47 77 102 c43 57 79 105 80 107 3 3 97 -50 186 -105 l37 -23 -68 -68
c-46 -47 -75 -86 -91 -126 l-25 -58 -60 6 c-95 10 -280 52 -393 90 -182 61
-329 151 -367 226 -51 97 24 253 142 294 33 12 163 21 163 12z m828 -138 c29
-78 51 -143 49 -145 -1 -2 -33 15 -69 36 l-66 40 -35 105 -36 105 52 0 52 0
53 -141z m346 -40 c37 -99 66 -182 64 -183 -1 -1 -20 -13 -41 -26 -33 -20 -41
-21 -53 -8 -8 7 -43 100 -78 206 l-65 192 53 0 53 0 67 -181z m808 169 c51
-15 126 -82 149 -133 22 -48 24 -126 4 -164 -25 -49 -106 -111 -210 -162 -143
-70 -151 -70 -200 -7 -34 43 -133 116 -178 131 -10 3 134 216 187 276 52 59
162 85 248 59z m-969 -505 c20 -9 37 -16 37 -17 0 -1 -11 -28 -25 -61 l-24
-60 -83 -3 c-96 -4 -228 6 -228 17 0 19 49 78 85 103 67 47 156 55 238 21z
m466 11 c50 -14 122 -66 110 -78 -7 -7 -271 -52 -351 -59 l-58 -6 14 28 c21
39 88 97 127 109 80 25 93 26 158 6z"/>
<path d="M410 905 l-54 -54 20 -22 c59 -66 213 -162 320 -200 74 -26 192 -49
250 -49 l44 0 0 79 0 80 -57 6 c-150 17 -287 73 -400 165 -34 28 -63 50 -65
50 -2 0 -28 -25 -58 -55z"/>
</g>
</svg>
