<svg xmlns="http://www.w3.org/2000/svg" width="183" height="48" viewBox="0 0 183 48" fill="none">
  <path fill-rule="evenodd" clip-rule="evenodd" d="M75.4916 31.0211V0H65.0266V0.987764C66.2012 1.05895 66.9932 1.34372 67.4026 1.84205C67.8119 2.32258 68.0166 3.43493 68.0166 5.17909V31.0211C68.0166 32.7831 67.8386 33.8687 67.4827 34.2781C66.9487 34.8832 66.1301 35.2036 65.0266 35.2392V36.2002H78.5083V35.2392C77.3158 35.168 76.5149 34.8921 76.1056 34.4116C75.6962 33.9132 75.4916 32.7831 75.4916 31.0211ZM89.8249 0V23.8131L95.618 18.1268C96.8104 16.97 97.549 16.1335 97.8338 15.6174C98.1363 15.1012 98.2876 14.6029 98.2876 14.1224C98.2876 13.6418 98.0918 13.2414 97.7003 12.921C97.3087 12.6007 96.5434 12.3693 95.4044 12.2269V11.2392H106.59V12.2269C105.522 12.2803 104.588 12.5384 103.787 13.0011C102.986 13.4461 101.42 14.8076 99.0885 17.0857L96.3655 19.7553L102.239 28.3515C104.606 31.8398 106.012 33.7976 106.457 34.2247C107.062 34.8298 107.827 35.168 108.753 35.2392V36.2002H95.8582V35.2392C96.4278 35.2392 96.8371 35.1324 97.0863 34.9188C97.3532 34.7052 97.4867 34.4739 97.4867 34.2247C97.4867 33.8153 97.113 33.059 96.3655 31.9555L91.4266 24.7208L89.8249 26.2959V30.7809C89.8249 32.6852 90.0028 33.8776 90.3588 34.3582C90.7147 34.8209 91.4444 35.1146 92.5479 35.2392V36.2002H79.6536V35.2392C80.7036 35.1324 81.4511 34.7942 81.8961 34.2247C82.1986 33.8331 82.3499 32.6852 82.3499 30.7809V5.41935C82.3499 3.53281 82.1719 2.35818 81.816 1.89544C81.4778 1.4327 80.757 1.13014 79.6536 0.987764V0H89.8249ZM114.436 36.5473C116.856 36.5473 119.588 35.2036 122.632 32.5162C122.81 33.8688 123.299 34.8832 124.1 35.5596C124.901 36.2181 126.013 36.5473 127.437 36.5473C128.647 36.5473 129.724 36.2537 130.667 35.6663C131.628 35.0612 132.554 34.1002 133.444 32.7831L132.643 32.1424C132.162 32.8009 131.691 33.1302 131.228 33.1302C130.997 33.1302 130.792 33.059 130.614 32.9166C130.436 32.7742 130.302 32.5607 130.214 32.2759C130.125 31.9733 130.08 31.2525 130.08 30.1135V20.4227C130.08 17.7353 129.955 16.0178 129.706 15.2703C129.297 14.0957 128.398 13.0101 127.01 12.0134C125.64 10.9989 123.771 10.4917 121.404 10.4917C119.446 10.4917 117.559 10.8032 115.744 11.4261C113.929 12.049 112.514 12.9478 111.499 14.1224C110.485 15.2792 109.978 16.4984 109.978 17.7798C109.978 18.6875 110.351 19.4795 111.099 20.1558C111.864 20.8321 112.808 21.1702 113.929 21.1702C114.979 21.1702 115.824 20.8677 116.465 20.2626C117.123 19.6396 117.453 18.8921 117.453 18.0201C117.453 17.3082 117.115 16.5696 116.438 15.8043C115.94 15.2525 115.691 14.7898 115.691 14.4161C115.691 13.9889 115.922 13.6152 116.385 13.2948C117.132 12.7787 118.084 12.5206 119.241 12.5206C119.953 12.5206 120.594 12.7075 121.163 13.0812C121.733 13.4372 122.116 13.8643 122.311 14.3627C122.525 14.8432 122.632 16.0267 122.632 17.9133V20.4227C117.132 22.95 113.564 24.9789 111.927 26.5095C110.289 28.0223 109.47 29.7309 109.47 31.6352C109.47 33.0412 109.942 34.2158 110.885 35.1591C111.829 36.0846 113.012 36.5473 114.436 36.5473ZM122.632 22.2114V30.5673C121.457 31.564 120.425 32.0623 119.535 32.0623C118.734 32.0623 118.111 31.8221 117.666 31.3415C117.079 30.7186 116.785 29.9978 116.785 29.1791C116.785 28.2003 117.132 27.2303 117.826 26.2692C118.876 24.8276 120.478 23.475 122.632 22.2114ZM145.294 11.2392V16.8988C146.949 14.3182 148.4 12.6096 149.646 11.7731C150.892 10.9188 152.093 10.4917 153.25 10.4917C154.246 10.4917 155.038 10.8032 155.626 11.4261C156.231 12.0312 156.533 12.8944 156.533 14.0156C156.533 15.2081 156.24 16.1335 155.652 16.792C155.083 17.4505 154.389 17.7798 153.57 17.7798C152.627 17.7798 151.808 17.4772 151.114 16.8721C150.42 16.267 150.011 15.9289 149.886 15.8577C149.708 15.7509 149.503 15.6975 149.272 15.6975C148.756 15.6975 148.266 15.8933 147.804 16.2848C147.074 16.8899 146.522 17.7531 146.148 18.8743C145.579 20.6007 145.294 22.505 145.294 24.5874V30.3271L145.321 31.8221C145.321 32.8365 145.383 33.4861 145.508 33.7709C145.721 34.2514 146.033 34.6074 146.442 34.8388C146.869 35.0523 147.581 35.1858 148.578 35.2392V36.2003H135.096V35.2392C136.182 35.1502 136.912 34.8565 137.285 34.3582C137.677 33.8421 137.873 32.4984 137.873 30.3271V16.5251C137.873 15.1013 137.801 14.1936 137.659 13.802C137.481 13.3037 137.223 12.9389 136.885 12.7075C136.547 12.4761 135.95 12.3159 135.096 12.227V11.2392H145.294ZM169.425 37.2148L161.363 18.7142C160.152 15.92 159.254 14.2025 158.666 13.5618C158.097 12.9211 157.403 12.4762 156.584 12.227V11.2393H169.852V12.227C168.98 12.2626 168.366 12.4317 168.01 12.7343C167.654 13.0368 167.476 13.4017 167.476 13.8288C167.476 14.5051 167.921 15.8399 168.811 17.8333L173.082 27.6041L175.992 20.049C177.042 17.3616 177.567 15.4929 177.567 14.4428C177.567 13.7843 177.345 13.2593 176.9 12.8677C176.473 12.4762 175.707 12.2626 174.604 12.227V11.2393H182.96V12.227C182.141 12.316 181.474 12.6364 180.958 13.1881C180.442 13.722 179.578 15.5641 178.368 18.7142L171.24 37.2148C169.443 41.8422 168.108 44.6898 167.236 45.7576C166.008 47.2526 164.468 48.0001 162.617 48.0001C161.14 48.0001 159.939 47.573 159.013 46.7187C158.106 45.8822 157.652 44.8677 157.652 43.6753C157.652 42.643 157.963 41.7888 158.586 41.1124C159.227 40.4361 160.01 40.098 160.935 40.098C161.825 40.098 162.537 40.3828 163.071 40.9523C163.623 41.5218 163.908 42.4028 163.925 43.5952C163.943 44.2715 164.023 44.7076 164.166 44.9033C164.308 45.0991 164.513 45.197 164.78 45.197C165.207 45.197 165.661 44.9389 166.141 44.4228C166.853 43.6753 167.69 41.9667 168.651 39.2971L169.425 37.2148ZM53.4169 32.5162C50.3735 35.2036 47.6416 36.5473 45.2211 36.5473C43.7973 36.5473 42.6138 36.0846 41.6705 35.1591C40.7272 34.2158 40.2556 33.0412 40.2556 31.6352C40.2556 29.7309 41.0743 28.0223 42.7117 26.5095C44.3491 24.9789 47.9175 22.95 53.4169 20.4227V17.9133C53.4169 16.0267 53.3101 14.8432 53.0965 14.3627C52.9008 13.8643 52.5181 13.4372 51.9486 13.0812C51.3791 12.7075 50.7384 12.5206 50.0265 12.5206C48.8696 12.5206 47.9175 12.7787 47.17 13.2948C46.7072 13.6152 46.4759 13.9889 46.4759 14.4161C46.4759 14.7898 46.725 15.2525 47.2234 15.8043C47.8997 16.5696 48.2378 17.3082 48.2378 18.0201C48.2378 18.8921 47.9086 19.6396 47.2501 20.2626C46.6093 20.8677 45.764 21.1702 44.7139 21.1702C43.5927 21.1702 42.6494 20.8321 41.8841 20.1558C41.1366 19.4795 40.7628 18.6875 40.7628 17.7798C40.7628 16.4984 41.2701 15.2792 42.2845 14.1224C43.299 12.9478 44.7139 12.049 46.5293 11.4261C48.3446 10.8032 50.2311 10.4917 52.1889 10.4917C54.556 10.4917 56.4247 10.9989 57.7951 12.0134C59.1833 13.0101 60.0821 14.0957 60.4914 15.2703C60.7406 16.0178 60.8652 17.7353 60.8652 20.4227V30.1135C60.8652 31.2525 60.9097 31.9733 60.9987 32.2759C61.0877 32.5607 61.2211 32.7742 61.3991 32.9166C61.5771 33.059 61.7818 33.1302 62.0131 33.1302C62.4759 33.1302 62.9475 32.8009 63.428 32.1424L64.2289 32.7831C63.339 34.1002 62.4136 35.0612 61.4525 35.6663C60.5092 36.2537 59.4325 36.5473 58.2222 36.5473C56.7984 36.5473 55.6861 36.2181 54.8852 35.5596C54.0843 34.8832 53.5949 33.8688 53.4169 32.5162ZM53.4169 30.5673V22.2114C51.2634 23.475 49.6616 24.8276 48.6116 26.2692C47.9175 27.2303 47.5704 28.2003 47.5704 29.1791C47.5704 29.9978 47.8641 30.7186 48.4514 31.3415C48.8963 31.8221 49.5192 32.0623 50.3201 32.0623C51.21 32.0623 52.2423 31.564 53.4169 30.5673ZM19.3014 18.6341L26.1357 36.9478H27.6574L34.6518 17.1124C35.4171 14.9056 36.04 13.5707 36.5206 13.108C37.0011 12.6275 37.6507 12.3338 38.4694 12.227V11.2393H31.0745V12.227C32.0534 12.2982 32.7119 12.494 33.0501 12.8143C33.3882 13.1347 33.5573 13.6419 33.5573 14.336C33.5573 14.7988 33.3259 15.6708 32.8632 16.9523L29.6596 25.9222L26.1357 16.1781C25.6196 14.8433 25.3615 13.9801 25.3615 13.5885C25.3615 13.1792 25.495 12.8677 25.762 12.6542C26.0289 12.4228 26.6607 12.2804 27.6574 12.227V11.2393H14.8699V12.227C15.7063 12.3694 16.3204 12.6275 16.7119 13.0012C17.1212 13.3572 17.5929 14.2025 18.1268 15.5374L18.3938 16.1781L14.8699 25.9222L11.2125 16.1781C10.6429 14.6653 10.3582 13.7576 10.3582 13.4551C10.3582 13.1347 10.5184 12.8499 10.8387 12.6008C11.1591 12.3516 11.7464 12.227 12.6007 12.227V11.2393H0V12.227C0.907675 12.4762 1.58398 12.8855 2.02892 13.4551C2.72303 14.2915 3.56841 16.0891 4.56507 18.8477L11.2125 36.9478H12.6007L19.3014 18.6341Z" fill="#333333"/>
</svg>