<?xml version="1.0" standalone="no"?>
<!DOCTYPE svg PUBLIC "-//W3C//DTD SVG 20010904//EN"
 "http://www.w3.org/TR/2001/REC-SVG-20010904/DTD/svg10.dtd">
<svg version="1.0" xmlns="http://www.w3.org/2000/svg"
 width="512.000000pt" height="512.000000pt" viewBox="0 0 512.000000 512.000000"
 preserveAspectRatio="xMidYMid meet">

<g transform="translate(0.000000,512.000000) scale(0.100000,-0.100000)"
fill="#000000" stroke="none">
<path d="M1626 5109 c-62 -15 -153 -68 -197 -116 -22 -24 -55 -74 -72 -111
-29 -61 -32 -76 -32 -162 0 -83 4 -103 28 -155 15 -32 39 -74 52 -91 l25 -32
-307 -874 c-168 -480 -325 -929 -348 -998 -23 -69 -206 -591 -406 -1160 -351
-1000 -363 -1038 -363 -1110 -1 -123 55 -214 162 -267 48 -23 69 -28 132 -27
72 0 112 13 1020 331 991 347 1902 666 2600 909 228 80 439 154 468 165 l53
19 32 -25 c18 -13 60 -37 92 -52 52 -24 72 -28 155 -28 86 0 101 3 162 32 93
44 151 100 195 191 37 74 38 77 42 216 11 433 -85 932 -261 1346 -518 1220
-1731 2018 -3051 2009 -78 -1 -159 -5 -181 -10z m449 -199 c634 -54 1241 -299
1724 -698 108 -89 319 -300 409 -410 323 -392 546 -854 646 -1345 45 -216 59
-357 60 -587 1 -210 0 -216 -23 -253 -67 -109 -221 -127 -311 -37 -48 48 -60
95 -60 236 -1 980 -524 1875 -1379 2359 -395 223 -860 345 -1325 345 -65 0
-137 6 -160 12 -74 23 -136 109 -136 189 0 77 64 168 132 188 45 13 276 13
423 1z m-150 -594 c1034 -39 1944 -729 2270 -1721 82 -247 113 -440 124 -765
5 -124 8 -226 7 -227 -4 -5 -608 -214 -610 -211 -1 1 -7 30 -14 63 -31 158
-162 325 -312 399 -179 87 -379 85 -553 -6 -81 -42 -203 -164 -245 -245 -42
-80 -72 -198 -72 -283 0 -79 28 -198 64 -268 l25 -50 -57 -21 c-255 -93 -2239
-781 -2254 -781 -49 0 -98 50 -98 99 0 10 158 470 351 1022 193 552 361 1032
373 1065 l21 62 65 -39 c237 -144 534 -108 730 90 87 87 131 164 160 277 36
141 18 294 -52 427 -42 81 -164 203 -245 245 -67 35 -195 72 -251 72 -28 0
-33 3 -28 17 13 33 276 786 276 789 0 2 44 1 98 -1 53 -3 156 -7 227 -9z
m-441 -1034 c91 -42 149 -100 194 -190 35 -72 37 -81 37 -172 0 -91 -2 -100
-37 -172 -45 -91 -103 -147 -196 -191 -61 -29 -76 -32 -162 -32 -86 0 -101 3
-160 31 -36 17 -83 47 -104 66 l-39 34 113 325 c63 178 119 328 124 332 6 5
46 6 88 4 59 -4 94 -12 142 -35z m1800 -1600 c36 -17 85 -49 110 -73 61 -56
116 -165 119 -238 l2 -53 -338 -119 c-187 -65 -347 -121 -357 -124 -15 -5 -26
9 -57 72 -36 73 -38 82 -38 172 0 87 3 102 32 163 40 85 97 147 172 186 78 42
122 52 213 48 61 -3 92 -11 142 -34z"/>
<path d="M2371 3806 c-226 -114 -250 -131 -251 -183 -1 -53 47 -103 100 -103
11 0 123 51 248 114 233 117 252 131 252 186 0 52 -50 101 -102 99 -13 0 -124
-51 -247 -113z"/>
<path d="M3026 3310 c-63 -16 -153 -70 -197 -117 -22 -24 -55 -74 -72 -111
-29 -61 -32 -76 -32 -163 0 -90 2 -99 37 -171 45 -91 103 -147 196 -191 61
-29 76 -32 162 -32 86 0 101 3 162 32 93 44 151 100 196 191 35 72 37 81 37
172 0 91 -2 100 -37 172 -68 136 -188 217 -336 224 -42 2 -94 -1 -116 -6z
m204 -224 c59 -39 85 -89 85 -166 0 -78 -26 -127 -88 -168 -56 -37 -153 -39
-210 -3 -76 47 -111 140 -88 229 14 51 75 117 123 131 53 16 135 6 178 -23z"/>
<path d="M2171 2706 c-28 -16 -50 -52 -51 -84 0 -12 51 -125 114 -250 117
-233 131 -252 186 -252 51 0 100 49 100 100 0 11 -51 123 -114 248 -90 180
-120 230 -140 240 -34 15 -65 15 -95 -2z"/>
<path d="M3571 2306 c-67 -37 -65 -143 4 -174 35 -16 255 -16 290 0 29 13 55
55 55 88 0 33 -26 75 -55 88 -37 17 -263 15 -294 -2z"/>
<path d="M1371 2106 c-67 -37 -65 -143 4 -174 35 -16 255 -16 290 0 29 13 55
55 55 88 0 33 -26 75 -55 88 -37 17 -263 15 -294 -2z"/>
<path d="M2171 1906 c-87 -48 -50 -186 49 -186 51 0 100 49 100 99 0 75 -83
124 -149 87z"/>
<path d="M1114 1499 c-70 -27 -128 -79 -161 -147 -23 -47 -28 -70 -28 -132 0
-85 21 -142 74 -203 82 -92 237 -121 353 -64 107 53 162 143 163 267 0 62 -5
85 -28 132 -68 137 -231 202 -373 147z m155 -193 c67 -35 65 -143 -4 -174 -51
-23 -107 -7 -131 39 -47 91 44 182 135 135z"/>
</g>
</svg>
