<?xml version="1.0" standalone="no"?>
<!DOCTYPE svg PUBLIC "-//W3C//DTD SVG 20010904//EN"
 "http://www.w3.org/TR/2001/REC-SVG-20010904/DTD/svg10.dtd">
<svg version="1.0" xmlns="http://www.w3.org/2000/svg"
 width="512.000000pt" height="512.000000pt" viewBox="0 0 512.000000 512.000000"
 preserveAspectRatio="xMidYMid meet">

<g transform="translate(0.000000,512.000000) scale(0.100000,-0.100000)"
fill="#000000" stroke="none">
<path d="M1065 4455 c-24 -24 -25 -28 -25 -187 l0 -163 -241 -320 -241 -320 4
-140 c3 -133 5 -144 35 -207 17 -37 52 -89 77 -116 l46 -49 0 -1132 0 -1132
25 -24 24 -25 1791 0 1791 0 24 25 25 24 0 1132 0 1132 46 49 c25 27 60 79 77
116 30 63 32 74 35 207 l4 140 -241 320 -241 320 0 163 c0 159 -1 163 -25 187
l-24 25 -1471 0 -1471 0 -24 -25z m2855 -215 l0 -80 -1360 0 -1360 0 0 80 0
80 1360 0 1360 0 0 -80z m-2370 -244 c0 -3 -70 -111 -155 -240 l-155 -236
-220 0 -220 0 180 240 180 240 195 0 c107 0 195 -2 195 -4z m507 -9 c-3 -7
-47 -115 -98 -240 l-93 -227 -218 0 -218 0 160 240 160 240 156 0 c124 0 155
-3 151 -13z m423 -227 l0 -240 -221 0 c-173 0 -220 3 -216 13 3 6 46 114 97
240 l93 227 123 0 124 0 0 -240z m501 8 c52 -127 96 -235 97 -240 2 -4 -96 -8
-217 -8 l-221 0 0 240 0 240 124 0 124 0 93 -232z m534 21 c77 -116 148 -224
158 -240 l19 -29 -219 0 -219 0 -84 208 c-46 114 -90 222 -97 240 l-13 32 157
0 158 0 140 -211z m625 -29 l180 -240 -220 0 -220 0 -160 240 -160 240 200 0
200 0 180 -240z m-2940 -456 c0 -31 -5 -75 -12 -98 -16 -55 -99 -138 -154
-154 -94 -28 -169 -8 -239 63 -57 56 -75 102 -75 189 l0 56 240 0 240 0 0 -56z
m640 0 c0 -31 -5 -75 -12 -98 -16 -55 -99 -138 -154 -154 -94 -28 -169 -8
-239 63 -57 56 -75 102 -75 189 l0 56 240 0 240 0 0 -56z m640 0 c0 -31 -5
-75 -12 -98 -16 -55 -99 -138 -154 -154 -94 -28 -169 -8 -239 63 -57 56 -75
102 -75 189 l0 56 240 0 240 0 0 -56z m640 0 c0 -87 -18 -133 -75 -189 -51
-52 -102 -75 -165 -75 -63 0 -114 23 -165 75 -57 56 -75 102 -75 189 l0 56
240 0 240 0 0 -56z m640 0 c0 -87 -18 -133 -75 -189 -51 -52 -102 -75 -165
-75 -63 0 -114 23 -165 75 -57 56 -75 102 -75 189 l0 56 240 0 240 0 0 -56z
m640 0 c0 -87 -18 -133 -75 -189 -51 -52 -102 -75 -165 -75 -63 0 -114 23
-165 75 -57 56 -75 102 -75 189 l0 56 240 0 240 0 0 -56z m-3073 -315 c24 -22
74 -55 111 -72 61 -29 76 -32 162 -32 86 0 101 3 162 32 37 17 87 50 112 73
l46 43 46 -43 c25 -23 75 -56 112 -73 61 -29 76 -32 162 -32 86 0 101 3 162
32 37 17 87 50 112 73 l46 43 46 -43 c25 -23 75 -56 112 -73 61 -29 76 -32
162 -32 86 0 101 3 162 32 37 17 87 50 112 73 l46 43 46 -43 c25 -23 75 -56
112 -73 61 -29 76 -32 162 -32 86 0 101 3 162 32 37 17 87 50 112 73 l46 43
46 -43 c25 -23 75 -56 112 -73 59 -28 78 -31 154 -32 l88 0 0 -1042 0 -1043
-960 0 -960 0 0 935 0 936 -25 24 -24 25 -591 0 -591 0 -24 -25 -25 -24 0
-936 0 -935 -80 0 -80 0 0 1043 0 1042 88 0 c82 0 95 3 163 37 41 20 90 53
108 72 19 20 37 36 39 36 3 0 25 -18 49 -41z m833 -1309 l0 -880 -480 0 -480
0 0 880 0 880 480 0 480 0 0 -880z"/>
<path d="M2505 2695 l-25 -24 0 -751 0 -751 25 -24 24 -25 751 0 751 0 24 25
25 24 0 751 0 751 -25 24 -24 25 -751 0 -751 0 -24 -25z m1415 -775 l0 -640
-640 0 -640 0 0 640 0 640 640 0 640 0 0 -640z"/>
<path d="M2943 2257 c-125 -125 -143 -147 -143 -175 0 -44 38 -82 82 -82 28 0
50 18 175 143 125 125 143 147 143 175 0 44 -38 82 -82 82 -28 0 -50 -18 -175
-143z"/>
<path d="M3223 1977 c-311 -311 -343 -345 -343 -375 0 -44 38 -82 82 -82 30 0
64 32 375 343 311 311 343 345 343 375 0 44 -38 82 -82 82 -30 0 -64 -32 -375
-343z"/>
<path d="M3503 1697 c-125 -125 -143 -147 -143 -175 0 -44 38 -82 82 -82 28 0
50 18 175 143 125 125 143 147 143 175 0 44 -38 82 -82 82 -28 0 -50 -18 -175
-143z"/>
<path d="M1945 1815 c-24 -23 -25 -31 -25 -135 0 -104 1 -112 25 -135 15 -16
36 -25 55 -25 19 0 40 9 55 25 24 23 25 31 25 135 0 104 -1 112 -25 135 -15
16 -36 25 -55 25 -19 0 -40 -9 -55 -25z"/>
</g>
</svg>
