
<svg version="1.0" xmlns="http://www.w3.org/2000/svg"
 width="512.000000pt" height="512.000000pt" viewBox="0 0 512.000000 512.000000"
 preserveAspectRatio="xMidYMid meet">

<g transform="translate(0.000000,512.000000) scale(0.100000,-0.100000)"
fill="#000000" stroke="none">
<path d="M1871 4943 c-17 -14 -46 -106 -136 -438 -63 -231 -115 -421 -115
-422 0 -2 -281 -3 -625 -3 l-626 0 -22 -22 c-15 -16 -32 -64 -56 -160 -31
-130 -34 -138 -57 -138 -14 0 -36 -11 -49 -25 -25 -24 -25 -26 -25 -215 0
-189 0 -191 25 -215 13 -14 33 -25 43 -25 17 0 20 -11 26 -102 3 -57 9 -129
13 -160 l6 -58 -32 0 c-33 0 -81 -37 -81 -62 0 -7 36 -380 81 -828 57 -578 85
-822 95 -838 8 -12 27 -25 43 -28 l27 -6 33 -431 c45 -600 41 -557 67 -584
l23 -23 1848 0 c1993 0 1912 -2 2015 51 58 30 153 122 188 184 39 68 60 161
60 268 0 80 -2 90 -25 112 l-24 25 -271 0 c-150 0 -270 3 -268 8 2 4 19 39 38
78 l35 72 235 3 235 4 67 32 c80 38 146 102 184 179 23 46 34 106 71 352 29
194 42 318 39 357 -11 163 -123 299 -278 341 -36 9 -110 14 -226 14 l-172 0 2
56 c2 51 0 59 -25 80 l-28 24 -780 0 -779 0 5 38 c7 52 45 432 45 455 0 29
-45 67 -81 67 l-32 0 6 58 c4 31 10 103 13 160 6 91 9 102 26 102 10 0 30 11
43 25 25 24 25 26 25 215 0 189 0 191 -25 215 -13 14 -35 25 -49 25 -23 0 -26
8 -57 138 -48 193 -30 182 -279 182 -119 0 -200 4 -200 9 0 6 47 183 105 394
58 212 105 394 105 406 0 12 -11 33 -25 46 -24 25 -26 25 -213 25 -166 0 -193
-2 -211 -17z m259 -153 c0 -5 -38 -148 -84 -317 -46 -169 -89 -327 -95 -350
l-12 -43 -74 0 c-41 0 -75 4 -75 10 0 5 38 148 84 317 46 169 89 327 95 351
l12 42 74 0 c41 0 75 -4 75 -10z m308 -950 l20 -80 -1018 0 -1018 0 20 80 20
80 978 0 978 0 20 -80z m122 -320 l0 -80 -1120 0 -1120 0 0 80 0 80 1120 0
1120 0 0 -80z m-94 -337 c-4 -54 -9 -126 -13 -160 l-6 -63 -1007 0 -1007 0 -6
63 c-4 34 -9 106 -13 160 l-7 97 1033 0 1033 0 -7 -97z m84 -395 c0 -21 -30
-321 -36 -355 l-5 -33 -340 0 -341 0 -67 68 c-78 78 -159 125 -267 152 -194
50 -378 -3 -525 -149 -87 -87 -131 -167 -156 -284 -54 -256 98 -534 345 -628
191 -72 404 -36 565 95 31 26 57 43 57 39 0 -13 19 -225 26 -280 l5 -53 -670
0 c-473 0 -671 3 -671 11 0 6 -31 325 -70 709 -38 384 -70 703 -70 709 0 8
323 11 1110 11 881 0 1110 -3 1110 -12z m-1026 -346 c86 -40 149 -100 186
-176 25 -53 30 -77 36 -176 l6 -115 -36 -71 c-44 -87 -104 -144 -194 -187 -61
-29 -76 -32 -162 -32 -86 0 -101 3 -162 32 -93 44 -151 100 -196 191 -35 72
-37 81 -37 171 0 87 3 102 32 163 40 85 97 147 172 186 78 42 122 52 213 48
61 -3 92 -11 142 -34z m2591 -249 c-3 -27 -23 -257 -45 -513 -22 -256 -47
-499 -56 -540 -20 -93 -78 -218 -133 -287 l-41 -53 -833 0 -834 0 -20 22 c-73
81 -143 231 -162 349 -6 35 -29 273 -51 529 -22 256 -41 482 -44 503 l-4 37
1114 0 1115 0 -6 -47z m564 -139 c59 -30 106 -91 117 -153 10 -52 -72 -614
-96 -662 -24 -46 -79 -93 -129 -108 -23 -6 -112 -11 -215 -11 l-177 0 7 68 c3
37 7 73 10 80 2 9 35 12 120 12 129 0 175 14 198 59 8 14 30 126 51 249 40
243 40 255 -12 304 -23 21 -34 23 -165 26 l-140 4 6 30 c3 17 6 52 6 79 l0 49
183 0 c178 0 185 -1 236 -26z m-249 -301 c0 -5 -11 -73 -25 -153 -14 -80 -25
-148 -25 -152 0 -5 -39 -8 -86 -8 l-86 0 6 53 c3 28 8 88 11 132 4 44 9 92 11
108 l6 27 94 0 c52 0 94 -3 94 -7z m-2590 -643 c18 -90 61 -200 104 -268 l26
-42 -240 0 -241 0 -24 -25 c-21 -20 -25 -34 -25 -80 l0 -55 -95 0 c-88 0 -98
-2 -120 -25 -33 -32 -33 -78 0 -110 23 -23 31 -25 130 -25 l106 0 16 -37 c8
-21 28 -57 44 -81 l28 -42 -457 0 -458 0 -32 428 c-18 235 -33 433 -32 440 0
10 129 12 626 10 l627 -3 17 -85z m2637 -520 c-13 -106 -72 -191 -165 -237
l-57 -28 -1215 0 c-1214 0 -1215 0 -1261 21 -97 45 -163 136 -176 242 l-6 52
1443 0 1443 0 -6 -50z"/>
<path d="M3789 2062 c-26 -22 -33 -68 -45 -274 l-7 -126 26 -26 c32 -32 68
-33 103 -3 26 22 27 30 40 178 7 85 13 169 14 187 1 67 -78 106 -131 64z"/>
<path d="M3748 1499 c-21 -12 -38 -69 -38 -127 0 -77 74 -119 131 -73 17 14
24 33 29 77 8 66 -3 110 -30 124 -24 13 -70 12 -92 -1z"/>
<path d="M825 615 c-16 -15 -25 -36 -25 -55 0 -19 9 -40 25 -55 21 -22 33 -25
95 -25 62 0 74 3 95 25 33 32 33 78 0 110 -21 22 -33 25 -95 25 -62 0 -74 -3
-95 -25z"/>
<path d="M2959 3107 c-57 -43 -51 -147 13 -228 15 -20 28 -43 28 -50 0 -7 -16
-36 -36 -65 -50 -73 -58 -141 -21 -178 34 -34 79 -34 112 -1 14 13 25 34 25
46 0 12 11 37 26 56 70 93 71 186 2 274 -19 25 -28 48 -28 73 0 66 -73 110
-121 73z"/>
<path d="M3359 3107 c-57 -43 -51 -147 13 -228 15 -20 28 -43 28 -50 0 -7 -16
-36 -36 -65 -50 -73 -58 -141 -21 -178 34 -34 79 -34 112 -1 14 13 25 34 25
46 0 12 11 37 26 56 70 93 71 186 2 274 -19 25 -28 48 -28 73 0 66 -73 110
-121 73z"/>
</g>
</svg>
