<?xml version="1.0" standalone="no"?>
<!DOCTYPE svg PUBLIC "-//W3C//DTD SVG 20010904//EN"
 "http://www.w3.org/TR/2001/REC-SVG-20010904/DTD/svg10.dtd">
<svg version="1.0" xmlns="http://www.w3.org/2000/svg"
 width="512.000000pt" height="512.000000pt" viewBox="0 0 512.000000 512.000000"
 preserveAspectRatio="xMidYMid meet">

<g transform="translate(0.000000,512.000000) scale(0.100000,-0.100000)"
fill="#000000" stroke="none">
<path d="M2467 5110 c-55 -14 -133 -56 -176 -95 -35 -32 -44 -35 -102 -35
-194 -1 -399 -120 -483 -281 l-30 -57 -60 -5 c-103 -8 -172 -41 -249 -118 -67
-67 -67 -67 -105 -57 -92 25 -218 -11 -296 -85 l-41 -39 -90 -2 c-78 -1 -99
-6 -157 -33 -166 -78 -261 -256 -229 -429 l12 -66 -64 -67 c-111 -118 -166
-267 -154 -420 3 -42 9 -86 13 -98 6 -23 5 -23 -91 -23 -93 0 -97 -1 -126 -29
l-29 -29 0 -261 c0 -283 8 -362 60 -601 80 -361 222 -725 403 -1025 226 -377
527 -674 879 -869 l66 -37 4 -113 c3 -102 5 -116 30 -153 16 -24 44 -49 70
-62 44 -21 46 -21 1048 -21 1002 0 1004 0 1048 21 26 13 54 38 70 62 25 37 27
51 30 153 l4 113 71 40 c642 354 1108 1063 1292 1966 l35 171 0 316 0 317 -26
20 c-23 18 -41 21 -122 21 -93 0 -94 0 -88 23 4 12 10 56 13 98 7 94 -15 201
-59 290 -33 66 -129 176 -183 209 -24 15 -35 30 -40 57 -19 101 -101 196 -202
233 -60 22 -61 22 -67 68 -21 153 -160 294 -322 324 -58 10 -62 13 -85 57 -60
114 -191 199 -320 209 -84 6 -177 -17 -243 -58 l-44 -28 -34 25 c-75 57 -205
103 -293 103 l-51 0 -28 65 c-62 143 -191 233 -342 240 -44 3 -96 0 -117 -5z
m167 -162 c82 -24 166 -136 166 -220 0 -14 9 -37 20 -51 19 -24 26 -25 137
-29 141 -4 196 -25 287 -107 73 -66 101 -68 163 -10 24 22 63 49 86 60 135 61
299 -27 331 -178 11 -47 30 -57 123 -64 104 -8 162 -40 207 -113 26 -41 31
-61 36 -138 6 -109 21 -128 102 -128 56 0 112 -26 142 -67 10 -14 21 -50 25
-81 4 -32 10 -62 14 -69 4 -6 39 -32 77 -58 79 -52 119 -98 157 -182 23 -49
28 -71 28 -148 0 -50 -6 -107 -13 -127 l-14 -38 -1756 0 c-1396 0 -1762 -3
-1782 -13 -53 -27 -58 -111 -10 -137 12 -6 697 -10 1914 -10 l1896 0 0 -160 0
-160 -2400 0 -2400 0 0 160 0 160 372 0 c368 0 372 0 395 22 29 27 30 77 4
109 -19 24 -20 24 -264 27 l-245 3 -12 32 c-56 160 14 363 159 456 69 44 79
74 49 142 -58 134 -8 270 122 328 51 23 97 26 168 10 70 -17 94 -8 129 50 38
61 71 83 131 88 37 4 57 -1 95 -21 85 -46 116 -34 166 67 45 89 136 134 247
123 75 -8 102 9 129 81 39 104 108 176 215 227 61 29 72 31 180 31 l115 0 60
61 c80 80 151 101 249 72z m2322 -2415 c-86 -450 -162 -686 -323 -1008 -225
-449 -546 -794 -933 -1004 l-75 -41 -137 0 c-129 0 -138 -1 -164 -23 -37 -33
-37 -81 0 -114 25 -21 36 -23 132 -23 l105 0 -3 -77 -3 -78 -985 0 -985 0 -3
78 -3 77 749 0 c743 0 750 0 776 21 37 29 37 89 0 118 -26 21 -33 21 -808 21
l-781 0 -75 41 c-483 262 -860 734 -1087 1359 -71 196 -111 351 -169 653 l-6
27 2392 0 2392 0 -6 -27z"/>
<path d="M2493 4349 c-95 -30 -127 -85 -82 -143 24 -30 66 -34 122 -11 20 8
60 15 89 15 106 -1 192 -67 228 -176 12 -36 30 -69 40 -74 31 -16 78 -12 100
10 33 33 30 81 -10 166 -86 187 -289 276 -487 213z"/>
<path d="M1443 3965 c-95 -29 -188 -107 -232 -194 -34 -66 -24 -123 25 -141
45 -18 72 -2 118 70 37 56 53 72 100 95 49 24 64 27 123 22 38 -3 82 -9 100
-13 62 -12 106 68 68 123 -33 47 -206 69 -302 38z"/>
<path d="M3540 3835 c-68 -20 -100 -48 -100 -89 1 -65 51 -93 126 -70 26 8 61
14 79 14 83 0 174 -59 215 -139 35 -70 112 -75 149 -10 13 24 13 31 -3 73 -10
25 -40 71 -68 101 -100 110 -261 158 -398 120z"/>
<path d="M2370 3696 c-74 -20 -122 -48 -177 -101 -60 -58 -67 -88 -30 -131 36
-41 72 -36 140 19 56 45 107 67 158 67 44 0 79 35 79 80 0 71 -63 96 -170 66z"/>
<path d="M4583 2248 c-28 -30 -44 -93 -33 -123 11 -28 47 -55 76 -55 78 0 123
153 55 189 -33 18 -76 13 -98 -11z"/>
<path d="M4479 1915 c-18 -10 -36 -38 -58 -92 -79 -189 -214 -417 -340 -573
-61 -76 -73 -109 -51 -149 14 -28 61 -44 93 -32 51 20 235 275 341 474 62 116
136 286 136 311 0 23 -54 76 -77 76 -10 -1 -30 -7 -44 -15z"/>
</g>
</svg>
