<?xml version="1.0" standalone="no"?>
<!DOCTYPE svg PUBLIC "-//W3C//DTD SVG 20010904//EN"
 "http://www.w3.org/TR/2001/REC-SVG-20010904/DTD/svg10.dtd">
<svg version="1.0" xmlns="http://www.w3.org/2000/svg"
 width="512.000000pt" height="512.000000pt" viewBox="0 0 512.000000 512.000000"
 preserveAspectRatio="xMidYMid meet">

<g transform="translate(0.000000,512.000000) scale(0.100000,-0.100000)"
fill="#000000" stroke="none">
<path d="M2093 5105 c-160 -45 -280 -171 -313 -329 l-11 -53 -61 -7 c-33 -3
-79 -6 -102 -6 -56 0 -106 -29 -133 -76 -44 -75 -17 -166 59 -205 38 -20 53
-21 140 -15 l98 6 0 -100 0 -100 -98 6 c-87 6 -102 5 -140 -15 -47 -24 -82
-80 -82 -131 0 -80 74 -150 158 -150 22 0 67 -3 101 -6 l61 -7 0 -282 0 -282
-122 -6 c-313 -14 -559 -125 -769 -345 -185 -192 -285 -418 -305 -688 l-7 -84
-59 0 c-78 0 -131 -27 -159 -81 -20 -40 -20 -50 -16 -513 4 -513 5 -521 68
-712 65 -200 165 -360 324 -520 201 -203 420 -321 705 -381 78 -17 161 -18
1050 -18 1077 0 1029 -3 1242 71 197 68 346 162 504 319 197 194 311 401 376
680 19 83 21 127 25 561 4 463 4 473 -16 513 -28 54 -81 81 -159 81 l-59 0 -6
59 c-13 119 -91 259 -177 319 l-40 27 6 65 c3 36 1 94 -6 130 -44 242 -263
408 -510 386 l-65 -6 -27 40 c-60 86 -200 164 -319 177 l-59 6 0 207 0 208 43
-4 c23 -2 355 -20 738 -40 l696 -36 41 21 c47 24 82 80 82 131 0 49 -35 107
-78 129 -34 17 -110 23 -747 56 -391 20 -725 38 -742 41 l-33 5 0 169 0 169
33 5 c17 3 351 21 741 41 795 41 766 37 806 115 40 77 12 165 -63 201 l-42 21
-690 -36 c-380 -19 -714 -38 -743 -40 -44 -4 -54 -2 -59 12 -53 159 -175 270
-331 303 -104 21 -231 -5 -323 -66 l-39 -25 -39 25 c-97 65 -244 90 -348 60z
m183 -310 c55 -36 54 -19 54 -870 l0 -785 -57 37 c-31 20 -90 51 -130 70 l-73
34 0 717 c0 663 1 720 18 752 32 66 124 88 188 45z m560 0 c55 -36 54 -27 54
-780 l0 -695 -42 -54 -43 -53 -87 1 -88 1 0 750 c0 694 1 753 18 785 32 66
124 88 188 45z m427 -1679 c48 -20 93 -76 107 -135 9 -37 22 -59 51 -86 34
-30 46 -35 91 -35 36 0 63 7 92 24 87 51 170 43 229 -23 55 -61 59 -133 12
-216 -40 -70 -37 -132 10 -184 27 -29 49 -42 86 -51 80 -20 149 -93 149 -160
0 -19 -6 -20 -169 -20 l-168 0 -5 94 c-6 116 -40 196 -114 270 -97 97 -254
142 -342 97 -47 -24 -82 -80 -82 -131 0 -76 74 -150 150 -150 21 0 41 -9 61
-29 26 -26 29 -36 29 -90 l0 -61 -330 0 -330 0 0 43 c-1 161 -58 360 -150 521
-28 48 -48 91 -45 96 7 12 72 30 106 30 14 0 51 -13 82 -30 83 -44 143 -42
196 5 29 27 42 49 51 86 28 114 135 176 233 135z m-1415 -86 c240 -49 449
-212 558 -437 47 -94 84 -237 84 -320 l0 -43 -129 0 -128 0 -7 64 c-22 215
-168 397 -374 468 -53 18 -89 23 -172 23 -83 0 -119 -5 -172 -23 -206 -71
-352 -253 -374 -468 l-7 -64 -130 0 -130 0 6 76 c10 107 32 185 82 289 80 164
207 291 370 370 172 84 336 104 523 65z m-83 -557 c87 -29 165 -134 165 -220
l0 -23 -250 0 -250 0 0 23 c0 48 34 121 75 162 69 70 164 91 260 58z m2565
-673 l0 -130 -1850 0 -1850 0 0 130 0 130 1850 0 1850 0 0 -130z m-4 -524
c-22 -324 -203 -628 -478 -806 -95 -62 -195 -106 -328 -143 -74 -22 -82 -22
-1040 -22 -958 0 -966 0 -1040 22 -133 37 -233 81 -328 143 -275 178 -456 482
-478 806 l-7 94 1853 0 1853 0 -7 -94z"/>
</g>
</svg>
